<?xml version="1.0" encoding="UTF-8"?>
<!-- Created with Inkscape (http://www.inkscape.org/) -->
<svg width="132.29mm" height="132.29mm" version="1.1" viewBox="0 0 132.29 132.29" xmlns="http://www.w3.org/2000/svg" xmlns:cc="http://creativecommons.org/ns#" xmlns:dc="http://purl.org/dc/elements/1.1/" xmlns:rdf="http://www.w3.org/1999/02/22-rdf-syntax-ns#">
 <metadata>
  <rdf:RDF>
   <cc:Work rdf:about="">
    <dc:format>image/svg+xml</dc:format>
    <dc:type rdf:resource="http://purl.org/dc/dcmitype/StillImage"/>
    <dc:title/>
   </cc:Work>
  </rdf:RDF>
 </metadata>
 <g transform="translate(-41.577 -64.242)">
  <g transform="translate(792.96 202.67)">
   <rect x="-751.38" y="-138.43" width="132.29" height="132.29" ry="33.073" fill="#eaf4fc" fill-opacity=".98824"/>
   <path d="m-652.44-102.99a30.711 30.711 0 0 0-26.261 14.847c-0.13998 0.19162-0.27145 0.39189-0.39291 0.60225l-15.256 26.424-7.4533-12.909c-1.2815-2.2197-3.5694-3.464-5.8956-3.4597-2.3859-0.06888-4.7575 1.1814-6.0712 3.4568l-7.4459 12.897-7.4458-12.897c-1.8837-3.2626-5.942-4.4214-9.0993-2.5985-3.1574 1.8229-4.1826 5.9171-2.2989 9.1797l12.943 22.417c1.2607 2.1835 3.4952 3.423 5.782 3.4588 0.0399 8.48e-4 0.0796 0.0014 0.11955 0.0016 0.041-1.12e-4 0.082-5.97e-4 0.12305-0.0016 2.2857-0.03693 4.5189-1.2762 5.779-3.4588l7.5267-13.036 7.5277 13.039c1.3091 2.2675 3.6689 3.5173 6.0464 3.4578 2.2644-0.0064 4.4595-1.1839 5.6778-3.294l8.3209-14.412 12.518-21.683 0.01 0.01488a17.549 17.549 0 0 1 15.246-8.8835 17.549 17.549 0 0 1 17.549 17.549 17.549 17.549 0 0 1-17.549 17.549h-7.7624c-3.6458 0-6.5812 2.9353-6.5812 6.5812 0 3.6458 2.9353 6.5807 6.5812 6.5807h7.9375v-0.0089a30.711 30.711 0 0 0 30.535-30.702 30.711 30.711 0 0 0-30.711-30.711zm-89.397 12.189a6.5809 6.5809 0 0 0-3.6006 0.87462 6.5809 6.5809 0 0 0-2.409 8.9897 6.5809 6.5809 0 0 0 8.9897 2.4085 6.5809 6.5809 0 0 0 2.409-8.9897 6.5809 6.5809 0 0 0-5.389-3.2831zm65.945 36.07a6.5809 6.5809 0 0 0-6.5812 6.5812 6.5809 6.5809 0 0 0 6.5812 6.5807 6.5809 6.5809 0 0 0 6.5807-6.5807 6.5809 6.5809 0 0 0-6.5807-6.5812z" fill="#a7d1f2" fill-opacity=".98824"/>
  </g>
 </g>
</svg>
